<svg width="45" height="32" viewBox="0 0 45 32" fill="none" xmlns="http://www.w3.org/2000/svg">
<path d="M41.25 0H13.125C11.8313 0 10.8187 0.622222 10.1437 1.56444L0 16L10.1437 30.4178C10.8187 31.36 11.8313 32 13.125 32H41.25C42.2446 32 43.1984 31.6254 43.9016 30.9586C44.6049 30.2918 45 29.3874 45 28.4444V3.55556C45 2.61256 44.6049 1.70819 43.9016 1.0414C43.1984 0.374602 42.2446 0 41.25 0ZM35.625 22.3822L32.9813 24.8889L26.25 18.5067L19.5187 24.8889L16.875 22.3822L23.6063 16L16.875 9.61778L19.5187 7.11111L26.25 13.4933L32.9813 7.11111L35.625 9.61778L28.8937 16" fill="black"/>
</svg>
