<svg width="59" height="59" viewBox="0 0 59 59" fill="none" xmlns="http://www.w3.org/2000/svg">
<path d="M29.5 0C25.626 0 21.7899 0.781984 18.2108 2.3013C14.6317 3.82062 11.3797 6.04753 8.64035 8.85486C3.10803 14.5245 0 22.2143 0 30.2324C0 43.5951 8.4665 54.9323 20.178 58.9532C21.653 59.195 22.125 58.2578 22.125 57.4416C22.125 56.7462 22.125 54.8416 22.125 52.3323C13.9535 54.1462 12.213 48.2811 12.213 48.2811C10.856 44.7742 8.9385 43.837 8.9385 43.837C6.254 41.9626 9.145 42.023 9.145 42.023C12.095 42.2347 13.6585 45.137 13.6585 45.137C16.225 49.7323 20.5615 48.3718 22.243 47.6463C22.5085 45.6812 23.2755 44.3509 24.1015 43.5951C17.5525 42.8393 10.679 40.2393 10.679 28.7208C10.679 25.365 11.8 22.6743 13.7175 20.5278C13.4225 19.772 12.39 16.6278 14.0125 12.5464C14.0125 12.5464 16.4905 11.7302 22.125 15.6301C24.4555 14.965 26.9925 14.6325 29.5 14.6325C32.0075 14.6325 34.5445 14.965 36.875 15.6301C42.5095 11.7302 44.9875 12.5464 44.9875 12.5464C46.61 16.6278 45.5775 19.772 45.2825 20.5278C47.2 22.6743 48.321 25.365 48.321 28.7208C48.321 40.2696 41.418 42.8091 34.8395 43.5649C35.9015 44.5021 36.875 46.3463 36.875 49.1579C36.875 53.209 36.875 56.4741 36.875 57.4416C36.875 58.2578 37.347 59.2253 38.8515 58.9532C50.563 54.902 59 43.5951 59 30.2324C59 26.2622 58.237 22.3309 56.7544 18.663C55.2719 14.995 53.099 11.6622 50.3597 8.85486C47.6203 6.04753 44.3683 3.82062 40.7892 2.3013C37.2101 0.781984 33.374 0 29.5 0Z" fill="#DDDDDD"/>
</svg>
