<svg width="55" height="54" viewBox="0 0 55 54" fill="none" xmlns="http://www.w3.org/2000/svg">
<path d="M48.8889 0C50.5097 0 52.064 0.632141 53.2101 1.75736C54.3562 2.88258 55 4.4087 55 6V48C55 49.5913 54.3562 51.1174 53.2101 52.2426C52.064 53.3679 50.5097 54 48.8889 54H6.11111C4.49034 54 2.93596 53.3679 1.7899 52.2426C0.643847 51.1174 0 49.5913 0 48V6C0 4.4087 0.643847 2.88258 1.7899 1.75736C2.93596 0.632141 4.49034 0 6.11111 0H48.8889ZM47.3611 46.5V30.6C47.3611 28.0062 46.3116 25.5186 44.4436 23.6845C42.5755 21.8504 40.0419 20.82 37.4 20.82C34.8028 20.82 31.7778 22.38 30.3111 24.72V21.39H21.7861V46.5H30.3111V31.71C30.3111 29.4 32.2056 27.51 34.5583 27.51C35.6929 27.51 36.7809 27.9525 37.5832 28.7402C38.3854 29.5278 38.8361 30.5961 38.8361 31.71V46.5H47.3611ZM11.8556 16.68C13.217 16.68 14.5227 16.149 15.4854 15.2038C16.4481 14.2586 16.9889 12.9767 16.9889 11.64C16.9889 8.85 14.6972 6.57 11.8556 6.57C10.486 6.57 9.17255 7.10416 8.20413 8.05497C7.23572 9.00578 6.69167 10.2954 6.69167 11.64C6.69167 14.43 9.01389 16.68 11.8556 16.68ZM16.1028 46.5V21.39H7.63889V46.5H16.1028Z" fill="#DDDDDD"/>
</svg>
